<mxfile host="app.diagrams.net" modified="2023-06-16T06:14:48.680Z" agent="Mozilla/5.0 (Windows NT 10.0; Win64; x64) AppleWebKit/537.36 (KHTML, like Gecko) Chrome/113.0.0.0 Safari/537.36" etag="jNqdjWvygkyJZu-CxDTh" version="21.4.0" type="github">
  <diagram name="第 1 页" id="iacMMPxvRY7zVr2YiZMg">
    <mxGraphModel dx="600" dy="314" grid="1" gridSize="10" guides="1" tooltips="1" connect="1" arrows="1" fold="1" page="1" pageScale="1" pageWidth="827" pageHeight="1169" math="0" shadow="0">
      <root>
        <mxCell id="0" />
        <mxCell id="1" parent="0" />
        <mxCell id="_vxVIdfuCTXL4mpVe2bo-1" value="职位列表模块" style="rounded=0;whiteSpace=wrap;html=1;" vertex="1" parent="1">
          <mxGeometry x="294" y="270" width="246" height="40" as="geometry" />
        </mxCell>
        <mxCell id="_vxVIdfuCTXL4mpVe2bo-2" value="职位搜索" style="rounded=0;whiteSpace=wrap;html=1;" vertex="1" parent="1">
          <mxGeometry x="266" y="360" width="120" height="40" as="geometry" />
        </mxCell>
        <mxCell id="_vxVIdfuCTXL4mpVe2bo-3" value="职位详细信息查看" style="rounded=0;whiteSpace=wrap;html=1;" vertex="1" parent="1">
          <mxGeometry x="448" y="360" width="120" height="40" as="geometry" />
        </mxCell>
        <mxCell id="_vxVIdfuCTXL4mpVe2bo-4" value="" style="endArrow=none;html=1;rounded=0;exitX=0.75;exitY=0;exitDx=0;exitDy=0;entryX=0.25;entryY=1;entryDx=0;entryDy=0;" edge="1" parent="1" source="_vxVIdfuCTXL4mpVe2bo-2">
          <mxGeometry width="50" height="50" relative="1" as="geometry">
            <mxPoint x="351" y="360" as="sourcePoint" />
            <mxPoint x="356.5" y="310" as="targetPoint" />
          </mxGeometry>
        </mxCell>
        <mxCell id="_vxVIdfuCTXL4mpVe2bo-5" value="" style="endArrow=none;html=1;rounded=0;entryX=0.75;entryY=1;entryDx=0;entryDy=0;exitX=0.25;exitY=0;exitDx=0;exitDy=0;" edge="1" parent="1" source="_vxVIdfuCTXL4mpVe2bo-3" target="_vxVIdfuCTXL4mpVe2bo-1">
          <mxGeometry width="50" height="50" relative="1" as="geometry">
            <mxPoint x="470" y="360" as="sourcePoint" />
            <mxPoint x="470.5" y="310" as="targetPoint" />
          </mxGeometry>
        </mxCell>
      </root>
    </mxGraphModel>
  </diagram>
</mxfile>
